<svg display="none" xmlns="http://www.w3.org/2000/svg">

   <symbol id="like" viewBox="0 0 512 452.3">
      <path d="M 309.2 371.8 C 292.1 386.4 274.5 401.3 256 417.4 C 237.5 401.3 219.9 386.3 202.8 371.8 C 98.7 283.1 30 224.5 30 147.5 C 30 115.7 40.6 86.1 59.9 64.3 C 79.3 42.2 106.4 30 136 30 C 177.1 30 203.7 55.3 218.8 76.6 C 232.3 95.7 249.6 127.7 256.1 127.7 C 262.6 127.7 279.9 95.7 293.4 76.6 C 308.3 55.3 334.9 30 376 30 C 405.6 30 432.7 42.2 452.1 64.3 C 471.4 86.2 482 115.7 482 147.5 C 482 224.5 413.3 283.1 309.2 371.8 Z" style="stroke-linejoin: round; stroke-linecap: round; stroke-width: 40px;"/>
   </symbol>

   <symbol id="delete" viewBox="0 0 1000 1000">
      <path d="M653.1,867.5c16.8,0,30.6-13.8,30.6-30.6V469.4c0-16.8-13.8-30.6-30.6-30.6c-16.8,0-30.6,13.8-30.6,30.6v367.5C622.5,853.7,636.3,867.5,653.1,867.5z M346.9,867.5c16.8,0,30.6-13.8,30.6-30.6V469.4c0-16.8-13.8-30.6-30.6-30.6s-30.6,13.8-30.6,30.6v367.5C316.3,853.7,330,867.5,346.9,867.5z M836.9,132.5H653.1V71.3c0-33.7-27.6-61.3-61.3-61.3H408.1c-33.7,0-61.3,27.6-61.3,61.3v61.3H163.1c-33.7,0-61.3,27.6-61.3,61.3V255c0,33.7,27.6,61.3,61.3,61.3v551.3c0,67.4,55.1,122.5,122.5,122.5h428.8c67.4,0,122.5-55.1,122.5-122.5V316.3c33.7,0,61.3-27.6,61.3-61.3v-61.2C898.1,160.1,870.6,132.5,836.9,132.5z M408.1,101.9c0-16.8,13.8-30.6,30.6-30.6h122.5c16.8,0,30.6,13.8,30.6,30.6v30.6c-29.9,0-183.8,0-183.8,0V101.9z M775.6,867.5c0,33.7-27.6,61.3-61.3,61.3H285.6c-33.7,0-61.3-27.6-61.3-61.3V316.3h551.3V867.5z M806.3,255H193.8c-16.8,0-30.6-13.8-30.6-30.6s13.8-30.6,30.6-30.6h612.5c16.8,0,30.6,13.8,30.6,30.6S823.1,255,806.3,255z M500,867.5c16.8,0,30.6-13.8,30.6-30.6V469.4c0-16.8-13.8-30.6-30.6-30.6s-30.6,13.8-30.6,30.6v367.5C469.4,853.7,483.2,867.5,500,867.5z"/>
   </symbol>
   
</svg>